<?xml version="1.0" encoding="utf-8"?>
<svg xmlns="http://www.w3.org/2000/svg" viewBox="0 0 100 100" width="100px" height="100px" xmlns:bx="https://boxy-svg.com">
  <defs>
    <bx:export>
      <bx:file format="svg"/>
    </bx:export>
  </defs>
  <path style="stroke: rgb(0, 0, 0);" d="M 1 1 H 84 A 15 15 0 0 1 99 16 V 84 A 15 15 0 0 1 84 99 H 16 A 15 15 0 0 1 1 84 V 1 A 0 0 0 0 1 1 1 Z" bx:shape="rect 1 1 98 98 0 0 0 0 15 15 0 15 15 0 15 15 2@a6702e25"/>
  <ellipse style="fill: rgb(255, 255, 255); stroke: rgb(255, 255, 255);" cx="29.52" cy="33.52" rx="13.52" ry="13.52"/>
  <polygon style="stroke: rgb(255, 255, 255); fill: rgb(255, 255, 255); transform-origin: 69.318px 35.968px;" points="61.525 21.01 71.532 21.01 71.532 31.013 81.539 31.013 81.539 41.029 71.532 41.029 71.532 51.032 61.525 51.032 61.525 41.029 51.516 41.029 51.516 31.013 61.525 31.013" transform="matrix(0.75471, 0.656059, -0.656059, 0.75471, 0.000002, -0.000002)"/>
</svg>